<?xml version="1.0" encoding="utf-8"?>
<!-- Generator: Adobe Illustrator 27.5.0, SVG Export Plug-In . SVG Version: 6.00 Build 0)  -->
<svg version="1.1" xmlns="http://www.w3.org/2000/svg" xmlns:xlink="http://www.w3.org/1999/xlink" x="0px" y="0px"
	 viewBox="0 0 500 500" style="enable-background:new 0 0 500 500;" xml:space="preserve">
<g id="Background_Simple">
	<g>
		<path style="fill:#C6FF00;" d="M259.915,109.416c-5.749-1.591-11.498-3.18-17.293-4.56c-18.344-4.367-37.353-5.39-56.204-4.406
			c-39.857,2.081-57.25,22.896-43.481,42.323c13.769,19.427,31.161,39.548,12.32,58.281s-89.861,35.385-82.614,68.689
			c7.247,33.304,71.019,38.16,65.946,59.669c-5.073,21.509-37.683,27.753-21.74,56.894c15.943,29.141,74.642,3.469,93.484,18.733
			c18.842,15.264,28.987,27.753,60.149,32.61c31.161,4.857,53.626-33.304,86.962-47.874c33.335-14.57,67.395-19.427,73.918-53.425
			c6.522-33.997-55.798-56.199-52.902-90.89c1.448-17.34,13.314-30.869,22.561-44.734c15.622-23.423,28.498-65.638-5.964-79.451
			c-14.986-6.007-32.212-4.373-48.003-4.035c-16.422,0.351-33.453,2.193-49.821,0.391
			C284.489,116.229,272.201,112.817,259.915,109.416z"/>
		<path style="opacity:0.7;fill:#FFFFFF;" d="M259.915,109.416c-5.749-1.591-11.498-3.18-17.293-4.56
			c-18.344-4.367-37.353-5.39-56.204-4.406c-39.857,2.081-57.25,22.896-43.481,42.323c13.769,19.427,31.161,39.548,12.32,58.281
			s-89.861,35.385-82.614,68.689c7.247,33.304,71.019,38.16,65.946,59.669c-5.073,21.509-37.683,27.753-21.74,56.894
			c15.943,29.141,74.642,3.469,93.484,18.733c18.842,15.264,28.987,27.753,60.149,32.61c31.161,4.857,53.626-33.304,86.962-47.874
			c33.335-14.57,67.395-19.427,73.918-53.425c6.522-33.997-55.798-56.199-52.902-90.89c1.448-17.34,13.314-30.869,22.561-44.734
			c15.622-23.423,28.498-65.638-5.964-79.451c-14.986-6.007-32.212-4.373-48.003-4.035c-16.422,0.351-33.453,2.193-49.821,0.391
			C284.489,116.229,272.201,112.817,259.915,109.416z"/>
	</g>
</g>
<g id="Graphics">
	<g>
		<g>
			<g>
				<path style="fill:none;stroke:#263238;stroke-linecap:round;stroke-linejoin:round;" d="M318.994,110.466
					c0,0-0.309,0.145-0.902,0.422"/>
				<path style="fill:none;stroke:#263238;stroke-linecap:round;stroke-linejoin:round;stroke-dasharray:1.9961,2.9941;" d="
					M315.384,112.158c-23.538,11.036-155.265,72.848-189.027,89.729c-37.116,18.558-40.525,61.565,25.542,46.718
					c42.188-9.48,207.109-40.086,227.152-7.423c19.625,31.981-5.039,63.625-42.533,74.526"/>
				<path style="fill:none;stroke:#263238;stroke-linecap:round;stroke-linejoin:round;" d="M335.07,316.117
					c-0.321,0.088-0.643,0.174-0.966,0.26"/>
			</g>
		</g>
		
			<path style="fill:none;stroke:#263238;stroke-linecap:round;stroke-linejoin:round;stroke-miterlimit:10;stroke-dasharray:2,3;" d="
			M402.107,361.873c0,0-9.65,10.611-45.566,31.834c-35.915,21.223-121.622,46.527-182.025,34.283
			c-60.403-12.244,23.671-52.24,81.626-70.198"/>
		<g>
			<polygon style="fill:#FFFFFF;stroke:#263238;stroke-linecap:round;stroke-linejoin:round;stroke-miterlimit:10;" points="
				369.449,76.451 307.195,83.523 322.919,95.244 			"/>
			<polygon style="fill:#FFFFFF;stroke:#263238;stroke-linecap:round;stroke-linejoin:round;stroke-miterlimit:10;" points="
				322.919,95.244 322.804,107.95 369.449,76.451 			"/>
			<polygon style="fill:#FFFFFF;stroke:#263238;stroke-linecap:round;stroke-linejoin:round;stroke-miterlimit:10;" points="
				322.804,107.95 330.096,97.651 369.449,76.451 			"/>
			<polygon style="fill:#FFFFFF;stroke:#263238;stroke-linecap:round;stroke-linejoin:round;stroke-miterlimit:10;" points="
				330.096,97.651 350.602,112.971 369.449,76.451 			"/>
		</g>
		<path id="XMLID_18_" style="fill:#263238;stroke:#263238;stroke-linecap:round;stroke-linejoin:round;stroke-miterlimit:10;" d="
			M402.107,317.876c-9.361,0-16.95,7.589-16.95,16.95c0,9.361,16.95,27.047,16.95,27.047s16.949-17.686,16.949-27.047
			C419.057,325.464,411.468,317.876,402.107,317.876z M402.107,340.889c-3.946,0-7.145-3.199-7.145-7.145
			c0-3.946,3.199-7.145,7.145-7.145c3.946,0,7.145,3.199,7.145,7.145C409.253,337.69,406.054,340.889,402.107,340.889z"/>
		<g>
			<path style="fill:#263238;" d="M192.29,90.576c-7.815-4.118-18.166-4.902-27.69-2.098c-9.648,2.841-17.971,9.198-22.265,17.004
				c-0.685,1.245-0.231,2.81,1.014,3.495c0.626,0.344,1.332,0.401,1.967,0.214c0.629-0.185,1.187-0.609,1.528-1.228
				c3.654-6.643,10.835-12.081,19.209-14.547c8.269-2.435,17.179-1.794,23.837,1.714c1.257,0.663,2.814,0.18,3.476-1.077
				C194.03,92.795,193.548,91.239,192.29,90.576z"/>
			<path style="fill:#263238;" d="M187.652,99.71c-6.127-2.666-13.246-3.031-20.047-1.029c-6.855,2.019-12.669,6.227-16.37,11.85
				c-0.781,1.187-0.453,2.783,0.734,3.564c0.658,0.433,1.442,0.525,2.143,0.319c0.563-0.166,1.073-0.524,1.421-1.053
				c3.033-4.607,7.836-8.067,13.525-9.743c5.644-1.662,11.518-1.374,16.54,0.811c1.303,0.567,2.819-0.03,3.386-1.333
				C189.552,101.794,188.955,100.277,187.652,99.71z"/>
			<path style="fill:#263238;" d="M182.941,108.772c-4.135-1.669-8.483-1.915-12.574-0.711c-4.253,1.253-7.872,3.957-10.464,7.821
				c-0.792,1.18-0.477,2.779,0.703,3.571c0.661,0.443,1.454,0.54,2.162,0.331c0.556-0.164,1.061-0.515,1.409-1.035
				c1.914-2.854,4.558-4.842,7.644-5.751c2.966-0.873,6.146-0.685,9.194,0.546c1.317,0.532,2.817-0.105,3.349-1.423
				C184.896,110.804,184.259,109.304,182.941,108.772z"/>
			<path style="fill:#263238;" d="M172.935,116.784c-3.272,0.963-5.143,4.397-4.18,7.669c0.963,3.272,4.397,5.143,7.669,4.18
				c3.272-0.963,5.143-4.397,4.18-7.669C179.641,117.692,176.207,115.82,172.935,116.784z"/>
		</g>
		<g>
			<path id="XMLID_17_" style="fill:#263238;stroke:#263238;stroke-linecap:round;stroke-linejoin:round;stroke-miterlimit:10;" d="
				M401.693,146.487h-44.677c-3.656,0-6.619,2.964-6.619,6.619v23.895c0,3.656,2.964,6.619,6.619,6.619h1.391
				c-1.387,3.083-4.055,7.768-8.351,10.561c0,0,9.063-0.632,18.508-10.561h33.129c3.656,0,6.619-2.964,6.619-6.619v-23.895
				C408.312,149.451,405.349,146.487,401.693,146.487z"/>
			<g>
				<path id="XMLID_16_" style="fill:#FFFFFF;" d="M371.672,164.203c0-1.882-1.525-3.407-3.407-3.407
					c-1.881,0-3.407,1.525-3.407,3.407s1.525,3.407,3.407,3.407C370.147,167.609,371.672,166.084,371.672,164.203z"/>
				<circle id="XMLID_15_" style="fill:#FFFFFF;" cx="379.848" cy="164.203" r="3.407"/>
				<path id="XMLID_14_" style="fill:#FFFFFF;" d="M394.838,164.203c0-1.882-1.525-3.407-3.407-3.407
					c-1.882,0-3.407,1.525-3.407,3.407s1.525,3.407,3.407,3.407C393.313,167.609,394.838,166.084,394.838,164.203z"/>
			</g>
		</g>
		<g id="XMLID_11_">
			
				<ellipse id="XMLID_13_" transform="matrix(0.9952 -0.098 0.098 0.9952 -26.6486 10.4005)" style="fill:#263238;stroke:#263238;stroke-linecap:round;stroke-linejoin:round;stroke-miterlimit:10;" cx="92.541" cy="276.451" rx="17.672" ry="17.673"/>
			
				<polygon id="XMLID_12_" style="fill:#FFFFFF;stroke:#263238;stroke-linecap:round;stroke-linejoin:round;stroke-miterlimit:10;" points="
				84.566,265.442 103.634,276.451 84.566,287.459 			"/>
		</g>
		<g>
			<g>
				<path style="fill:#263238;stroke:#263238;stroke-linecap:round;stroke-linejoin:round;stroke-miterlimit:10;" d="
					M134.656,410.333c-3.598-0.012-6.32-0.876-8.803-2.365c-12.642-7.576-20.09-18.839-23.247-33.081
					c-0.652-2.941-0.986-5.962-0.258-8.929c1.282-5.226,4.563-8.654,9.77-10.096c1.964-0.544,3.899,0.227,4.599,2.132
					c1.202,3.271,2.166,6.643,2.998,10.03c0.387,1.576-0.561,2.881-2.007,3.613c-1.478,0.748-3,1.424-4.544,2.027
					c-1.165,0.455-1.418,1.163-1.016,2.278c2.934,8.126,7.491,15.196,13.712,21.197c0.918,0.886,1.584,0.74,2.417-0.18
					c1.076-1.189,2.232-2.341,3.511-3.3c1.451-1.088,3.143-1.215,4.635-0.052c2.36,1.839,4.773,3.648,6.9,5.738
					c2.522,2.48,2.355,4.862-0.179,7.333C140.61,409.152,137.519,410.288,134.656,410.333z"/>
				<path style="fill:#263238;stroke:#263238;stroke-linecap:round;stroke-linejoin:round;stroke-miterlimit:10;" d="
					M152.397,381.067c-0.207,1.595-0.329,3.207-0.643,4.781c-0.329,1.652-1.532,2.377-3.035,2.021
					c-1.309-0.31-1.99-1.541-1.695-3.164c0.839-4.617,0.204-9.014-2.059-13.122c-2.788-5.059-6.983-8.371-12.603-9.827
					c-0.445-0.115-0.917-0.182-1.322-0.383c-1.108-0.549-1.663-1.451-1.414-2.706c0.255-1.286,1.314-2.199,2.622-1.875
					c2.174,0.539,4.391,1.139,6.388,2.125C147.042,363.066,152.27,371.687,152.397,381.067z"/>
				<path style="fill:#263238;stroke:#263238;stroke-linecap:round;stroke-linejoin:round;stroke-miterlimit:10;" d="
					M144.111,382.315c-0.079,0.598-0.162,1.752-0.395,2.875c-0.307,1.483-1.464,2.296-2.772,2.08c-1.39-0.229-2.142-1.4-2.034-2.975
					c0.101-1.462,0.332-2.973,0.09-4.391c-0.942-5.531-4.214-9.068-9.617-10.601c-1.763-0.5-2.661-1.616-2.34-3.002
					c0.346-1.495,1.655-2.155,3.482-1.757C138.268,366.233,144.129,373.66,144.111,382.315z"/>
				<path style="fill:#263238;stroke:#263238;stroke-linecap:round;stroke-linejoin:round;stroke-miterlimit:10;" d="
					M130.889,383.135c0.186-3.066-1.303-5.206-4.257-6.121c-1.705-0.528-2.498-1.726-2.098-3.168
					c0.389-1.402,1.722-1.998,3.471-1.55c5.155,1.318,8.593,6.616,7.677,11.83c-0.309,1.759-1.235,2.574-2.746,2.417
					c-1.48-0.154-2.201-1.19-2.083-2.995C130.864,383.411,130.878,383.273,130.889,383.135z"/>
			</g>
			
				<line style="fill:none;stroke:#FFFFFF;stroke-linecap:round;stroke-linejoin:round;stroke-miterlimit:10;" x1="116.291" y1="370.004" x2="116.867" y2="371.629"/>
			
				<line style="fill:none;stroke:#FFFFFF;stroke-linecap:round;stroke-linejoin:round;stroke-miterlimit:10;" x1="111.665" y1="356.933" x2="115.658" y2="368.215"/>
			
				<line style="fill:none;stroke:#FFFFFF;stroke-linecap:round;stroke-linejoin:round;stroke-miterlimit:10;" x1="134.207" y1="397.089" x2="143.918" y2="405.573"/>
			
				<line style="fill:none;stroke:#FFFFFF;stroke-linecap:round;stroke-linejoin:round;stroke-miterlimit:10;" x1="131.563" y1="394.779" x2="133.157" y2="396.171"/>
		</g>
	</g>
</g>
<g id="Device">
	<g>
		<g>
			<path style="fill:none;stroke:#263238;stroke-width:4;stroke-linecap:round;stroke-linejoin:round;stroke-miterlimit:10;" d="
				M277.551,110.607c0,0-3.407-12.946-5.451-20.441C270.056,82.671,261.88,67,244.846,67c-17.034,0-32.024,14.309-27.936,41.563
				c4.088,27.254,27.254,113.105,27.254,113.105"/>
			<path style="fill:none;stroke:#263238;stroke-width:4;stroke-linecap:round;stroke-linejoin:round;stroke-miterlimit:10;" d="
				M206.009,224.393c0,0,3.407,12.946-28.617,32.024c-32.024,19.078-70.908,31.046-62.685,51.102
				c10.954,26.717,62.314-9.021,80.4-4.088c7.495,2.044,6.753,7.974,8.057,9.343"/>
			<path style="fill:none;stroke:#263238;stroke-width:4;stroke-linecap:round;stroke-linejoin:round;stroke-miterlimit:10;" d="
				M301.399,199.864c0,0,4.447,23.991,48.376,15.671c72.067-13.649,71.542,21.122,53.827,28.617
				c-20.43,8.643-48.376,9.539-62.003,34.068"/>
			
				<line style="fill:none;stroke:#263238;stroke-width:8;stroke-linecap:round;stroke-linejoin:round;stroke-miterlimit:10;" x1="279.595" y1="118.783" x2="275.507" y2="103.793"/>
		</g>
		<g>
			<path style="fill:#FFFFFF;stroke:#263238;stroke-linecap:round;stroke-linejoin:round;stroke-miterlimit:10;" d="
				M336.209,277.539c0,0,4.77-8.176,9.539-4.77s-5.451,10.22-1.363,11.583c4.088,1.363,12.264-2.044,14.99,6.814
				c2.725,8.858-5.451,12.946-13.627,10.902C337.572,300.024,330.759,291.848,336.209,277.539z"/>
			<path style="fill:none;stroke:#263238;stroke-linecap:round;stroke-linejoin:round;stroke-miterlimit:10;" d="M351.855,284.904
				c0,0,10.129,6.945,4.052,16.206"/>
		</g>
		<g>
			<path style="fill:#FFFFFF;stroke:#263238;stroke-linecap:round;stroke-linejoin:round;stroke-miterlimit:10;" d="
				M339.799,387.573l-99.63,15.552c-6.641,1.037-13.404-4.526-15.107-12.424l-51.745-240.062
				c-2.965-11.314,7.195-17.352,13.836-18.388l94.735-13.343c6.641-1.037,13.405,4.526,15.107,12.425l58.393,239.675
				C357.09,378.905,352.956,385.598,339.799,387.573z"/>
			<path style="fill:#263238;stroke:#263238;stroke-linecap:round;stroke-linejoin:round;stroke-miterlimit:10;" d="
				M346.612,384.847l-99.63,15.552c-6.641,1.037-13.405-4.526-15.107-12.425L180.13,147.913c-1.702-7.899,2.301-15.142,8.942-16.179
				l99.63-15.552c6.641-1.037,13.404,4.526,15.107,12.425l51.745,240.062C357.257,376.567,353.253,383.81,346.612,384.847z"/>
			<polygon style="fill:#C6FF00;stroke:#263238;stroke-linecap:round;stroke-linejoin:round;stroke-miterlimit:10;" points="
				347.098,356.328 234.634,373.884 187.537,155.388 300.001,137.832 			"/>
			<g>
				<path style="fill:#263238;" d="M251.475,205.555c1.141,5.511,0.44,10.28-1.564,10.651c-2.004,0.372-4.554-3.795-5.694-9.306
					c-1.141-5.511-0.44-10.28,1.564-10.652C247.785,195.878,250.334,200.044,251.475,205.555z"/>
				<path style="fill:#263238;" d="M276.167,200.944c1.141,5.511,0.44,10.28-1.564,10.652c-2.004,0.372-4.554-3.795-5.694-9.306
					c-1.141-5.511-0.44-10.28,1.564-10.651C272.477,191.267,275.026,195.433,276.167,200.944z"/>
				<path style="fill:none;stroke:#263238;stroke-width:4;stroke-linecap:round;stroke-linejoin:round;stroke-miterlimit:10;" d="
					M234.543,229.269c7.63,12.91,20.812,20.517,33.84,18.102c12.799-2.373,21.88-13.758,24.015-28.078"/>
			</g>
			<g>
				<line style="fill:none;stroke:#FFFFFF;stroke-miterlimit:10;" x1="215.598" y1="236.504" x2="210.469" y2="246.976"/>
				<line style="fill:none;stroke:#FFFFFF;stroke-miterlimit:10;" x1="258.587" y1="148.736" x2="220.194" y2="227.121"/>
				<line style="fill:none;stroke:#FFFFFF;stroke-miterlimit:10;" x1="246.557" y1="149.404" x2="230.518" y2="180.146"/>
				<line style="fill:none;stroke:#FFFFFF;stroke-miterlimit:10;" x1="321.856" y1="323.39" x2="304.031" y2="358.582"/>
				<line style="fill:none;stroke:#FFFFFF;stroke-miterlimit:10;" x1="330.095" y1="307.123" x2="324.557" y2="318.057"/>
			</g>
			<path style="fill:#FFFFFF;stroke:#263238;stroke-linecap:round;stroke-linejoin:round;stroke-miterlimit:10;" d="
				M257.154,134.189l-31.078,4.851c-1.212,0.189-2.447-0.826-2.758-2.268l0,0c-0.311-1.442,0.42-2.764,1.632-2.953l31.078-4.851
				c1.212-0.189,2.447,0.826,2.758,2.268l0,0C259.096,132.678,258.366,134,257.154,134.189z"/>
			<path style="fill:#FFFFFF;stroke:#263238;stroke-linecap:round;stroke-linejoin:round;stroke-miterlimit:10;" d="
				M296.989,374.291c-0.567-2.633-2.822-4.487-5.036-4.141c-2.214,0.346-3.548,2.76-2.981,5.393
				c0.568,2.633,2.822,4.487,5.036,4.142C296.222,379.338,297.556,376.924,296.989,374.291z"/>
		</g>
		<g>
			<path style="fill:#FFFFFF;stroke:#263238;stroke-miterlimit:10;" d="M283.622,294.735l-45.925,7.909
				c-3.02,0.52-5.042,2.988-4.518,5.513l5.921,28.51l0.155,0.745l3.094,14.9l8.632-12.184l40.616-6.995
				c3.02-0.52,5.042-2.988,4.518-5.513l-6.075-29.255C289.515,295.84,286.642,294.215,283.622,294.735z"/>
			<path style="fill:#C6FF00;stroke:#263238;stroke-linecap:round;stroke-linejoin:round;stroke-miterlimit:10;" d="
				M280.328,311.857c0-0.002,0-0.004,0-0.006c0.033-0.572-0.031-0.962-0.087-1.181c-0.013-0.074-0.017-0.148-0.032-0.223
				c-0.784-3.773-5.077-6.202-9.59-5.425c-3.552,0.612-6.172,3.029-6.748,5.869c-1.676-2.453-5.084-3.832-8.636-3.22
				c-4.513,0.777-7.536,4.466-6.753,8.239c0,0-0.119,3.225,7.538,7.923c6.292,3.86,11.603,6.979,11.7,6.867
				c0.132,0.072,3.951-4.601,8.437-10.335c2.423-3.097,3.482-5.4,3.913-7.003c0.105-0.348,0.176-0.704,0.216-1.065
				C280.307,312.14,280.32,311.994,280.328,311.857z"/>
		</g>
		<g>
			<path style="fill:#FFFFFF;stroke:#263238;stroke-linecap:round;stroke-linejoin:round;stroke-miterlimit:10;" d="
				M209.489,313.722c0,0-2.876-9.018-8.273-6.731c-5.396,2.288,3.097,11.161-1.19,11.602c-4.287,0.441-11.526-4.664-16.113,3.389
				c-4.587,8.052,2.504,13.822,10.929,13.605C203.267,335.371,211.696,328.873,209.489,313.722z"/>
			<g>
				<path style="fill:#263238;" d="M190.621,322.247c-0.291,1.08-1.027,1.822-1.644,1.655c-0.617-0.166-0.882-1.177-0.592-2.257
					c0.291-1.08,1.027-1.822,1.644-1.656C190.647,320.156,190.912,321.167,190.621,322.247z"/>
				<path style="fill:#263238;" d="M186.609,323.972c-0.291,1.08-1.027,1.822-1.644,1.655c-0.617-0.166-0.882-1.177-0.592-2.257
					c0.291-1.08,1.027-1.822,1.644-1.656C186.635,321.882,186.9,322.892,186.609,323.972z"/>
				<path style="fill:#263238;" d="M189.122,328.394c-0.291,1.08-1.027,1.822-1.644,1.655c-0.617-0.166-0.882-1.177-0.591-2.257
					c0.291-1.08,1.027-1.822,1.644-1.655S189.412,327.314,189.122,328.394z"/>
			</g>
			<path style="fill:none;stroke:#263238;stroke-linecap:round;stroke-linejoin:round;stroke-miterlimit:10;" d="M191.952,332.511
				c-0.743,0.676-1.56,1.2-2.411,1.542"/>
			<path style="fill:none;stroke:#263238;stroke-linecap:round;stroke-linejoin:round;stroke-miterlimit:10;" d="M194.334,319.565
				c1.244,2.107,1.566,5.081,0.647,8.052c-0.413,1.335-1.033,2.529-1.792,3.533"/>
		</g>
	</g>
</g>
</svg>
